<?xml version="1.0" standalone="no"?><!DOCTYPE svg PUBLIC "-//W3C//DTD SVG 1.1//EN" "http://www.w3.org/Graphics/SVG/1.1/DTD/svg11.dtd"><svg class="icon" width="32px" height="32.00px" viewBox="0 0 1024 1024" version="1.1" xmlns="http://www.w3.org/2000/svg"><path d="M518.0416 335.872c-64.768-2.7648-185.0368 3.9424-235.3664 129.4336S123.392 946.688 525.1584 946.688s272.2816-376.4736 260.9664-414.72c-11.3152-38.2464-31.8464-80.384-54.4768-113.7152-22.5792-33.3312-53.248-75.52-213.6064-82.3808z" fill="#FDF29B" /><path d="M357.9904 641.0752c8.96-220.5696 79.36-281.0368 99.2768-303.36-62.7712 7.2704-137.5744 35.2768-174.592 127.5904-50.3296 125.4912-166.8096 521.8816 333.6192 473.7024-226.7648-45.2096-260.352-237.7728-258.304-297.9328z" fill="#F7DC86" /><path d="M525.1584 962.048c-129.6384 0-220.0576-36.5568-268.8-108.6464-79.6672-117.8112-26.624-297.3184 12.0832-393.7792 39.168-97.6896 123.392-144.5376 250.2656-139.0592 157.2352 6.7072 196.4544 45.9776 225.6896 89.088 23.9616 35.328 45.056 79.4624 56.4736 118.016 0.3584 1.2288 0.8192 2.7648 1.4336 4.6592 33.024 107.264 36.9664 197.9904 11.776 269.7728a15.36 15.36 0 0 1-19.5584 9.4208 15.36 15.36 0 0 1-9.4208-19.5584c15.7696-45.0048 26.4704-124.9792-12.1856-250.5728-0.6144-1.9968-1.1264-3.6864-1.536-4.9664-10.5472-35.6864-30.1568-76.5952-52.4288-109.4656-19.7632-29.1328-46.7968-69.0176-201.5744-75.6224C403.3536 346.368 331.2128 385.536 296.9088 471.04c-29.3376 73.1648-89.5488 255.1296-15.1552 365.1584 42.7008 63.1296 124.5696 95.1808 243.4048 95.1808 102.8608 0 177.8176-25.4464 222.7712-75.5712 5.6832-6.2976 15.36-6.8608 21.7088-1.1776 6.2976 5.6832 6.8608 15.36 1.1776 21.7088-51.0464 56.832-133.6832 85.7088-245.6576 85.7088z" fill="#000F04" /><path d="M536.576 196.4544c-7.2704-16.3328-60.3648-119.0912-246.7328-123.2896-5.1712-0.1024-7.0144 6.5024-2.4576 8.8576 54.7328 28.2112 131.9424 90.3168 143.7696 184.9344 0.3072 2.3552 2.4064 4.2496 4.9152 4.1984 54.2208-1.3824 92.9792-58.9824 100.1984-70.5536 0.8192-1.2288 0.9216-2.7648 0.3072-4.1472z" fill="#BFE5BD" /><path d="M307.1488 81.1008s140.2368 41.728 192.6656 114.7392c-7.424 27.3408-12.4928 28.9792-12.4928 28.9792L378.3168 152.9856 291.6352 84.2752l15.5136-3.1744z" fill="#A2DD9E" /><path d="M435.9168 286.5664c-10.1888 0-18.688-7.4752-19.968-17.664-12.8512-102.5024-107.008-158.5152-135.5776-173.2096a19.9424 19.9424 0 0 1-10.2912-22.6816 20.1728 20.1728 0 0 1 19.6608-15.2064h0.4608c193.6896 4.352 250.88 111.0528 260.4032 132.352 2.6624 6.0416 2.2016 12.9536-1.3312 18.5344-7.936 12.7488-50.7904 76.1856-112.8448 77.7728-0.1536 0.1024-0.3072 0.1024-0.512 0.1024z m-103.5264-195.072c41.8304 29.3888 98.5088 82.8928 112.4864 163.4304 36.608-6.3488 65.2288-43.264 75.0592-57.4464-11.4176-21.2992-58.0608-90.4704-187.5456-105.984z m190.1568 111.1552c0 0.0512 0 0.0512 0 0 0 0.0512 0 0.0512 0 0z" fill="#000F04" /><path d="M279.9104 220.3136c108.4416-11.9296 128.9216 73.6768 131.3792 126.6688 39.2192-11.6736 78.2848-12.288 106.7008-11.0592 5.376 0.2048 10.5472 0.512 15.616 0.8192-11.1104-57.6-44.3904-140.3904-114.3296-164.5568-76.1856-26.3168-126.1568 19.8656-143.872 40.5504-2.7648 3.2256 0.1024 8.0384 4.5056 7.5776z" fill="#BFE5BD" /><path d="M284.7744 204.4928s115.0976-31.1296 190.208 24.7808c-1.6384 31.0784 0 41.9328 0 41.9328s-104.96-50.432-195.072-50.8928c-11.9808-10.9568 4.864-15.8208 4.864-15.8208z" fill="#A2DD9E" /><path d="M411.3408 362.3424c-3.1744 0-6.2464-0.9728-8.9088-2.816a15.36 15.36 0 0 1-6.4512-11.8272c-1.3824-29.8496-8.7552-70.2976-36.0448-93.6448-18.5856-15.9232-45.0048-22.1696-78.336-18.432-8.3968 0.9216-16.384-3.2768-20.3264-10.7008-3.84-7.2704-2.816-15.9744 2.5088-22.2208 19.968-23.296 75.6224-74.3936 160.5632-45.056 89.9584 31.0784 117.9648 142.6944 124.416 176.1792 0.8704 4.6592-0.4096 9.472-3.5328 13.056-3.1232 3.584-7.7312 5.5296-12.4416 5.2224-4.9664-0.3072-10.0864-0.5632-15.36-0.8192-39.168-1.6896-72.448 1.7408-101.6832 10.4448-1.4848 0.3584-2.9184 0.6144-4.4032 0.6144zM306.7392 203.9808c29.2864 1.2288 53.8112 10.1888 73.1648 26.7264 29.7472 25.4464 41.2672 63.9488 45.2096 96.8704 26.6752-5.9392 56.064-8.2432 89.088-7.168-14.5408-55.7568-46.9504-115.456-99.9424-133.7344-48.4352-16.7936-84.992-0.2048-107.52 17.3056z m-26.8288 16.3328z" fill="#000F04" /><path d="M390.144 354.4576c45.9264-18.8416 94.3616-20.0192 127.8976-18.5344h0.4096c-0.2048-5.632-1.7408-11.9296-5.0688-19.0464-0.2048-0.3584-0.4096-0.768-0.6656-1.1264-135.8848-168.4992-269.4144-46.7456-310.016-1.6384-3.3792 3.7376 0.8192 9.3184 5.632 7.424 123.7504-48.128 166.9632-0.512 181.8112 32.9216z" fill="#BFE5BD" /><path d="M223.3856 306.1248s140.7488-94.1056 233.216 19.6096c-36.9664 17.664-67.1232 21.248-67.1232 21.248S360.0384 281.6 223.3856 306.1248z" fill="#A2DD9E" /><path d="M390.144 369.8176a15.36 15.36 0 0 1-14.0288-9.1136c-21.8112-49.0496-77.8752-57.6512-162.2528-24.832a20.3264 20.3264 0 0 1-24.2176-7.3728 19.8144 19.8144 0 0 1 1.5872-24.6272c24.576-27.2896 89.9072-89.9072 171.4688-89.9072 1.4336 0 2.8672 0 4.3008 0.0512 56.4736 1.536 109.5168 32.5632 157.5936 92.16 1.1264 1.3824 1.9456 2.7648 2.6624 4.2496 4.0448 8.6016 6.1952 16.9984 6.5024 24.9856 0.1536 4.2496-1.4848 8.3968-4.5056 11.4176-3.0208 3.0208-7.2192 4.608-11.4176 4.5056h-0.512c-48.0768-2.0992-87.7568 3.6352-121.344 17.408-1.8944 0.7168-3.8912 1.0752-5.8368 1.0752zM301.2096 285.5936c53.504 0 81.664 25.6 96.256 49.7152 29.0816-9.984 61.696-15.0016 98.9184-15.2064-40.8576-48.7936-84.6336-74.1888-130.1504-75.4176-47.5648-1.2288-89.9072 24.0128-119.2448 48.2304 20.4288-5.12 38.4512-7.3216 54.2208-7.3216zM202.752 307.2z" fill="#000F04" /><path d="M502.3744 335.5136c5.4784 0.0512 10.752 0.2048 15.6672 0.4096 13.2096 0.5632 25.4464 1.3824 36.9664 2.4064l62.1056-84.0704c0.3584-0.4608 0.5632-0.9216 0.7168-1.4848 2.7648-9.9328 34.0992-113.8176 148.1728-172.4928 4.4032-2.2528 3.072-8.5504-1.8944-8.9088-57.6512-3.7888-245.9136 0.3072-288.9728 209.1008-0.2048 0.9728-0.1024 1.9968 0.3072 2.8672 9.6256 21.5552 18.8928 38.7584 26.9312 52.1728z" fill="#BFE5BD" /><path d="M747.776 78.6432s-185.1904 33.024-253.7472 229.5808c8.3968 27.2384 28.6208 21.4016 28.6208 21.4016s80.8448-166.4 232.2432-243.3536c4.864-2.6624-7.1168-7.6288-7.1168-7.6288z" fill="#A2DD9E" /><path d="M555.008 353.6896c-0.4608 0-0.9216 0-1.3312-0.0512-11.9296-1.0752-23.808-1.8432-36.2496-2.3552-4.7616-0.2048-9.8304-0.3584-15.1552-0.4096a15.32928 15.32928 0 0 1-13.0048-7.424c-9.728-16.128-19.0464-34.2016-27.8016-53.76-1.7408-3.84-2.2016-8.2432-1.3312-12.3392 45.6192-220.9792 244.992-225.2288 305.0496-221.2864 9.216 0.6144 16.64 7.0144 18.4832 15.9232 1.8432 8.9088-2.4064 17.7152-10.5984 21.9136-107.8272 55.5008-137.4208 152.1152-140.4416 162.9696-0.6656 2.3552-1.7408 4.5568-3.2256 6.5024l-62.0544 84.0192c-2.8672 3.9936-7.4752 6.2976-12.3392 6.2976z m-43.7248-33.3824a737.5104 737.5104 0 0 1 36.4544 1.9968l55.8592-75.6224c5.0688-16.9984 33.792-100.5568 121.8048-160.1536-73.1648 3.6864-199.936 33.9456-234.5984 193.7408 6.6048 14.2848 13.4144 27.6992 20.48 40.0384z m-21.0944-36.8128v0z m114.5856-38.4s0 0.0512-0.0512 0.0512l0.0512-0.0512z" fill="#000F04" /><path d="M518.0416 335.872c54.9376 2.3552 94.6688 8.8576 124.0576 17.7152 14.4896-44.9536 56.1152-128.3584 165.1712-125.2352 4.7616 0.1536 6.912-5.7344 3.072-8.4992-54.1184-38.8608-199.8848-92.8768-293.0688 116.0192h0.768z" fill="#BFE5BD" /><path d="M807.2704 228.352c4.7616 0.1536 6.912-5.7344 3.072-8.4992-1.792-1.28-3.6864-2.6112-5.6832-3.8912-52.5824-13.4144-152.6272-16.5376-234.0352 112.6912 2.304 4.1472 4.5568 8.1408 6.8608 12.032 25.856 3.2256 47.0528 7.68 64.5632 12.9536 14.5408-44.9536 56.1664-128.3584 165.2224-125.2864z" fill="#A2DD9E" /><path d="M642.0992 368.9984c-1.4848 0-2.9696-0.2048-4.4544-0.6656-30.5664-9.216-71.0656-14.9504-120.2688-17.0496h-0.7168c-5.0688-0.2048-9.728-2.9184-12.3904-7.2704-2.6624-4.3008-3.0208-9.6768-0.9728-14.336 14.4384-32.3584 30.9248-60.3136 48.9984-83.0464a15.37536 15.37536 0 0 1 24.064 19.1488c-12.6464 15.872-24.4736 34.7136-35.328 56.1152 35.5328 2.4064 65.6896 6.7584 91.392 13.2608 15.9744-40.8064 54.4256-106.8032 138.5472-119.808-36.0448-16.2304-97.8432-31.488-157.4912 13.6192a15.34976 15.34976 0 1 1-18.5344-24.4736c79.1552-59.8016 170.3424-35.7376 224.4096 3.072a19.8912 19.8912 0 0 1 7.3216 22.5792c-2.8672 8.448-10.5472 13.9264-19.8144 13.7216-97.7408-2.7648-135.936 70.6048-150.1184 114.5856a15.49824 15.49824 0 0 1-14.6432 10.5472zM754.8928 784.5888c-5.5808 0-11.008-3.072-13.7216-8.3968-12.544-24.6272-28.3648-49.9712-47.104-75.3152-5.0176-6.8096-3.584-16.4352 3.2256-21.504 6.8096-5.0176 16.4352-3.584 21.504 3.2256 19.712 26.6752 36.4544 53.504 49.7664 79.6672a15.36 15.36 0 0 1-13.6704 22.3232zM670.976 662.8352c-4.3008 0-8.6016-1.792-11.6224-5.3248-18.0736-20.8896-38.4-42.1888-60.3648-63.2832a15.36 15.36 0 0 1-0.4608-21.7088 15.36 15.36 0 0 1 21.7088-0.4608c22.6304 21.76 43.6224 43.7248 62.3104 65.3824 5.5296 6.4 4.864 16.128-1.5872 21.6576-2.816 2.5088-6.4 3.7376-9.984 3.7376zM538.0608 535.1936c-3.4304 0-6.8608-1.1264-9.728-3.4816-19.8144-16.2816-40.8064-32.5632-62.4128-48.4352a15.36512 15.36512 0 0 1-3.2768-21.4528 15.36512 15.36512 0 0 1 21.4528-3.2768c22.016 16.1792 43.4688 32.8192 63.744 49.4592a15.36 15.36 0 0 1 2.1504 21.6064 15.4624 15.4624 0 0 1-11.9296 5.5808zM436.1728 458.5984c-3.0208 0-6.0416-0.8704-8.704-2.7136-28.8768-19.9168-53.1968-35.2256-68.5056-44.5952a15.31392 15.31392 0 0 1-5.0688-21.0944 15.31392 15.31392 0 0 1 21.0944-5.0688c15.616 9.5744 40.448 25.2416 69.888 45.5168 6.9632 4.8128 8.7552 14.3872 3.9424 21.3504-2.9696 4.3008-7.7824 6.6048-12.6464 6.6048zM682.24 935.0656a15.36 15.36 0 0 1-11.1616-4.8128c-20.9408-22.2208-46.6944-49.2544-76.544-80.3328a15.31392 15.31392 0 0 1 0.4608-21.7088 15.31392 15.31392 0 0 1 21.7088 0.4608c29.9008 31.1296 55.7056 58.2656 76.7488 80.5376a15.31904 15.31904 0 0 1-0.6656 21.7088c-2.9696 2.7648-6.7584 4.1472-10.5472 4.1472zM554.0864 801.1264c-4.0448 0-8.0384-1.5872-11.0592-4.7104-19.8144-20.5312-40.0384-41.4208-60.0576-62.1056a15.36 15.36 0 0 1 0.3584-21.7088 15.31392 15.31392 0 0 1 21.7088 0.3584c20.0704 20.6848 40.2944 41.5744 60.1088 62.1568a15.31392 15.31392 0 0 1-0.4096 21.7088c-2.9184 2.9184-6.8096 4.3008-10.6496 4.3008zM414.464 657.2032c-3.9936 0-7.9872-1.536-11.008-4.6592-20.3776-20.8896-39.5776-40.6016-56.832-58.3168-5.9392-6.0928-5.7856-15.7696 0.256-21.7088s15.7696-5.7856 21.7088 0.256c17.3056 17.7152 36.5056 37.4272 56.8832 58.3168a15.3088 15.3088 0 0 1-0.3072 21.7088c-2.9696 2.9184-6.8096 4.4032-10.7008 4.4032zM323.4304 563.8656c-3.9936 0-7.9872-1.536-11.008-4.608-30.208-30.9248-49.1008-50.1248-49.1008-50.1248a15.36 15.36 0 0 1 0.2048-21.7088 15.36 15.36 0 0 1 21.7088 0.2048s18.8928 19.2512 49.1008 50.176a15.3088 15.3088 0 0 1-0.256 21.7088c-2.9184 2.8672-6.7584 4.352-10.6496 4.352zM447.1808 920.4224c-3.7888 0-7.5776-1.3824-10.5472-4.1984-19.4048-18.2784-39.424-38.8608-59.4944-61.0816a15.38048 15.38048 0 0 1 1.1264-21.7088 15.38048 15.38048 0 0 1 21.7088 1.1264c19.5072 21.6064 38.912 41.5744 57.7536 59.2896a15.36512 15.36512 0 0 1 0.6656 21.7088c-3.0208 3.2768-7.1168 4.864-11.2128 4.864zM321.3824 779.6736c-4.608 0-9.1136-2.048-12.1344-5.9392a1725.5936 1725.5936 0 0 1-56.1664-76.7488 15.36 15.36 0 0 1 3.8912-21.3504 15.36 15.36 0 0 1 21.3504 3.8912c17.7152 25.6512 36.2496 50.9952 55.1936 75.3664 5.2224 6.7072 3.9936 16.3328-2.7136 21.5552-2.816 2.1504-6.0928 3.2256-9.4208 3.2256zM761.2928 536.3712c-4.4032 0-8.7552-1.8944-11.8272-5.5296-16.64-20.0192-37.888-41.3696-63.0272-63.5392a15.32928 15.32928 0 0 1-1.3824-21.6576 15.32928 15.32928 0 0 1 21.6576-1.3824c26.368 23.1936 48.6912 45.7216 66.3552 66.9696a15.36 15.36 0 0 1-1.9968 21.6576c-2.816 2.304-6.2976 3.4816-9.7792 3.4816z" fill="#000F04" /><path d="M650.24 432.9984c-3.2768 0-6.6048-1.0752-9.4208-3.2256-21.7088-16.8448-45.056-33.7408-69.376-50.176a15.4368 15.4368 0 0 1-4.1472-21.3504 15.39072 15.39072 0 0 1 21.3504-4.1472c24.8832 16.7936 48.7936 34.0992 71.0656 51.4048 6.7072 5.2224 7.8848 14.848 2.7136 21.5552a15.4624 15.4624 0 0 1-12.1856 5.9392zM782.5408 641.1776c-2.2528 0-4.5568-0.512-6.7072-1.536a15.38048 15.38048 0 0 1-7.1168-20.5312c5.5808-11.4688 11.264-23.5008 16.896-35.6864a15.34976 15.34976 0 0 1 27.8528 12.9024c-5.7344 12.3904-11.52 24.576-17.152 36.2496a15.36 15.36 0 0 1-13.7728 8.6016zM708.7616 776.0896a15.3088 15.3088 0 0 1-13.0048-23.4496c14.6432-23.552 29.44-49.3568 44.032-76.6464 3.9936-7.4752 13.312-10.2912 20.7872-6.3488 7.4752 3.9936 10.2912 13.312 6.3488 20.7872-14.8992 27.904-30.0544 54.272-45.056 78.3872-2.9696 4.7104-7.9872 7.2704-13.1072 7.2704zM599.8592 915.8656c-4.0448 0-8.1408-1.5872-11.1616-4.7616a15.36 15.36 0 0 1 0.5632-21.7088c19.3024-18.3296 39.2704-41.1136 59.2896-67.6352 5.12-6.7584 14.7456-8.0896 21.504-3.0208 6.7584 5.12 8.0896 14.7456 3.0208 21.504-21.0944 27.904-42.1376 51.9168-62.6688 71.424-2.9184 2.816-6.7584 4.1984-10.5472 4.1984zM389.5296 909.1584c-4.352 0-8.704-1.8432-11.7248-5.4272a15.39584 15.39584 0 0 1 1.792-21.6576c19.6096-16.64 32.9216-28.7744 52.7872-48.1792a15.3088 15.3088 0 0 1 21.7088 0.256 15.3088 15.3088 0 0 1-0.256 21.7088c-20.1728 19.712-34.4064 32.7168-54.3744 49.6128-2.9184 2.4576-6.4 3.6864-9.9328 3.6864zM500.5824 801.1264c-3.7376 0-7.4752-1.3312-10.3936-4.0448a15.32416 15.32416 0 0 1-0.8704-21.7088c17.8176-19.3536 36.0448-40.0896 54.1184-61.5936a15.40096 15.40096 0 0 1 21.6576-1.8944 15.40096 15.40096 0 0 1 1.8944 21.6576c-18.3808 21.8624-36.9152 42.9568-55.04 62.6688-3.1232 3.2768-7.2192 4.9152-11.3664 4.9152zM616.2944 662.8352c-3.2768 0-6.5536-1.024-9.3184-3.1744a15.39072 15.39072 0 0 1-2.816-21.5552c16.7424-21.8112 33.4848-44.4416 49.7664-67.2256a15.39584 15.39584 0 0 1 21.4528-3.584c6.912 4.9152 8.4992 14.5408 3.584 21.4528a2550.1696 2550.1696 0 0 1-50.432 68.096 15.4624 15.4624 0 0 1-12.2368 5.9904zM707.1744 536.3712a15.32928 15.32928 0 0 1-12.6976-23.9104c25.344-37.6832 40.0896-61.9008 40.192-62.1568 4.4032-7.2704 13.824-9.5744 21.0944-5.1712 7.2704 4.4032 9.5744 13.824 5.1712 21.0944-0.6144 1.024-15.2064 25.0368-41.0112 63.3856-2.9696 4.4032-7.8336 6.7584-12.7488 6.7584zM253.6448 832.8704c-1.1776 0-2.4064-0.1536-3.584-0.4096a15.42656 15.42656 0 0 1-11.3664-18.5344c2.6112-10.8544 5.0176-19.0976 10.0864-31.5392 3.2256-7.8336 12.2368-11.6224 20.0192-8.3968a15.36 15.36 0 0 1 8.3968 20.0192c-4.4032 10.7008-6.2976 17.2544-8.6528 27.0848a15.29344 15.29344 0 0 1-14.8992 11.776zM280.9856 765.44a15.3344 15.3344 0 0 1-13.568-22.4768c10.24-19.5584 19.6096-33.6896 34.4064-54.5792a15.34464 15.34464 0 1 1 25.0368 17.7664c-14.2848 20.1728-22.784 32.9728-32.256 51.0976a15.37536 15.37536 0 0 1-13.6192 8.192zM357.9904 656.4352a15.36 15.36 0 0 1-9.8816-3.584 15.40096 15.40096 0 0 1-1.8944-21.6576c15.8208-18.8416 33.536-38.5536 52.5824-58.5728 5.8368-6.144 15.5648-6.4 21.7088-0.5632s6.4 15.5648 0.5632 21.7088a1306.112 1306.112 0 0 0-51.3536 57.1904c-3.0208 3.6352-7.3728 5.4784-11.7248 5.4784zM468.8896 539.5968c-4.0448 0-8.0896-1.5872-11.1104-4.7616a15.36 15.36 0 0 1 0.4608-21.7088c20.3776-19.5072 42.1888-39.5264 64.7168-59.4432 6.3488-5.632 16.0768-5.0176 21.6576 1.3312 5.632 6.3488 5.0176 16.0768-1.3312 21.6576-22.272 19.6608-43.7248 39.424-63.8464 58.624-2.9184 2.8672-6.7584 4.3008-10.5472 4.3008z" fill="#000F04" /><path d="M588.4928 432.9984c-4.4032 0-8.7552-1.8944-11.776-5.5296a15.4112 15.4112 0 0 1 1.9456-21.6576c42.5472-35.5328 72.192-57.9072 72.4992-58.1632 6.7584-5.12 16.384-3.7888 21.504 3.0208 5.12 6.7584 3.7888 16.384-3.0208 21.504-0.3072 0.2048-29.3888 22.2208-71.2704 57.1904-2.9184 2.4576-6.4 3.6352-9.8816 3.6352zM272.5888 574.0032c-2.8672 0-5.7344-0.768-8.2944-2.4576a15.42656 15.42656 0 0 1-4.608-21.248c14.6432-22.7328 31.5392-44.8512 50.2272-65.8432 5.632-6.3488 15.36-6.912 21.7088-1.2288 6.3488 5.632 6.912 15.36 1.2288 21.7088a507.77088 507.77088 0 0 0-47.36 62.0544c-2.9184 4.5056-7.8336 7.0144-12.9024 7.0144zM371.712 460.2368c-4.2496 0-8.4992-1.792-11.5712-5.2224a15.32928 15.32928 0 0 1 1.4336-21.6576c22.8352-20.0704 47.6672-38.8608 73.8304-55.9616 7.1168-4.6592 16.64-2.6112 21.248 4.4544a15.3088 15.3088 0 0 1-4.4544 21.248c-24.9344 16.2816-48.64 34.2528-70.4 53.3504-2.8672 2.56-6.5024 3.7888-10.0864 3.7888zM495.1552 375.296c-5.5296 0-10.8544-2.9696-13.6192-8.192a15.37536 15.37536 0 0 1 6.4-20.736c26.6752-14.08 43.9296-20.736 44.6464-21.0432 7.936-3.0208 16.7936 0.9216 19.8656 8.8576 3.0208 7.936-0.9216 16.7936-8.8576 19.8144-0.1536 0.0512-16.4352 6.3488-41.2672 19.5072-2.304 1.2288-4.7616 1.792-7.168 1.792z" fill="#000F04" /></svg>